<?xml version="1.0" encoding="utf-8"?>
<!-- Generator: Adobe Illustrator 19.2.1, SVG Export Plug-In . SVG Version: 6.00 Build 0)  -->
<svg version="1.1" id="Layer_1" xmlns="http://www.w3.org/2000/svg" xmlns:xlink="http://www.w3.org/1999/xlink" x="0px" y="0px"
	 viewBox="0 0 795 291" enable-background="new 0 0 795 291" xml:space="preserve">
<g>
	<path fill="#808080" d="M756.878,272.154l3.605-2.163c2.538,4.672,5.47,7.008,8.797,7.008c1.423,0,2.759-0.332,4.009-0.995
		c1.25-0.663,2.202-1.553,2.855-2.668s0.981-2.298,0.981-3.547c0-1.423-0.481-2.817-1.442-4.182
		c-1.327-1.884-3.749-4.153-7.268-6.807c-3.538-2.673-5.739-4.605-6.605-5.797c-1.5-2-2.25-4.163-2.25-6.489
		c0-1.846,0.442-3.528,1.327-5.047c0.884-1.519,2.129-2.716,3.735-3.591c1.605-0.875,3.35-1.312,5.235-1.312
		c2,0,3.87,0.495,5.61,1.485s3.581,2.812,5.523,5.465l-3.461,2.625c-1.596-2.115-2.956-3.509-4.081-4.182
		c-1.125-0.673-2.351-1.009-3.677-1.009c-1.711,0-3.11,0.519-4.196,1.557c-1.086,1.038-1.63,2.317-1.63,3.836
		c0,0.923,0.192,1.817,0.577,2.682c0.385,0.865,1.086,1.807,2.105,2.826c0.558,0.538,2.384,1.952,5.48,4.24
		c3.672,2.711,6.191,5.124,7.557,7.239s2.048,4.24,2.048,6.374c0,3.076-1.168,5.749-3.504,8.018
		c-2.336,2.269-5.177,3.403-8.523,3.403c-2.576,0-4.913-0.687-7.008-2.062C760.58,277.686,758.647,275.384,756.878,272.154z"/>
	<g>
		<path fill="#808080" d="M159.999,8.451v33.149h-56.011v154.062H64.615V41.601H8.35V8.451H159.999z"/>
		<path fill="#808080" d="M311.619,41.601h-99.067v39.754h90.938v32.514h-90.938v48.136h103.639v33.657H174.322V24.702
			c0-8.975,7.276-16.251,16.251-16.251h121.046V41.601z"/>
		<path fill="#808080" d="M329.442,8.451h41.01l74.314,130.537V8.451h36.452v187.211h-39.111L365.893,62.829v132.833h-36.452V8.451z
			"/>
		<path fill="#808080" d="M605.49,12.516c13.133,4.318,23.769,12.237,31.905,23.751c6.526,9.315,10.972,19.391,13.346,30.228
			c2.374,10.84,3.561,21.169,3.561,30.99c0,24.894-5.001,45.977-14.999,63.25c-13.558,23.286-34.489,34.927-62.793,34.927h-80.716
			V8.451h80.716C588.12,8.622,597.778,9.975,605.49,12.516z M533.77,40.966v122.183h36.128c18.488,0,31.378-9.101,38.67-27.307
			c3.984-9.99,5.979-21.887,5.979-35.689c0-19.051-2.991-33.678-8.969-43.881c-5.979-10.203-17.872-15.305-35.681-15.305H533.77z"/>
		<path fill="#808080" d="M716.602,7.15h-0.695c-4.402,17.063-8.785,34.051-13.155,50.993l-2.856,11.071l17.816,55.496h-32.133
			c-2.731,10.587-5.467,21.192-8.206,31.81h50.74l12.407,38.725h42.607L716.602,7.15z"/>
	</g>
	<path fill="#808080" d="M7.554,237.63h4.24v17.795h21.602V237.63h4.24v42.426h-4.24v-20.477H11.794v20.477h-4.24V237.63z"/>
	<path fill="#808080" d="M66.397,237.63H90.71v4.153H70.637v13.296h19.901v4.153H70.637v16.67h19.901v4.153h-24.14V237.63z"/>
	<path fill="#808080" d="M139.441,237.63l19.785,42.426h-4.579l-6.673-13.959h-18.277l-6.61,13.959h-4.73l20.045-42.426H139.441z
		 M138.906,246.644l-7.27,15.357h14.504L138.906,246.644z"/>
	<path fill="#808080" d="M188.457,237.63h4.24v38.33h16.324v4.095h-20.564V237.63z"/>
	<path fill="#808080" d="M237.018,241.784v-4.153h23.246v4.153h-9.46v38.273h-4.326v-38.273H237.018z"/>
	<path fill="#808080" d="M288.976,237.63h4.24v17.795h21.602V237.63h4.24v42.426h-4.24v-20.477h-21.602v20.477h-4.24V237.63z"/>
	<path fill="#808080" d="M375.335,272.154l3.605-2.163c2.538,4.672,5.47,7.008,8.797,7.008c1.423,0,2.759-0.332,4.009-0.995
		c1.25-0.663,2.202-1.553,2.855-2.668s0.981-2.298,0.981-3.547c0-1.423-0.481-2.817-1.442-4.182
		c-1.327-1.884-3.749-4.153-7.268-6.807c-3.538-2.673-5.739-4.605-6.605-5.797c-1.5-2-2.25-4.163-2.25-6.489
		c0-1.846,0.442-3.528,1.327-5.047c0.884-1.519,2.129-2.716,3.735-3.591s3.35-1.312,5.235-1.312c2,0,3.87,0.495,5.61,1.485
		c1.74,0.99,3.581,2.812,5.523,5.465l-3.461,2.625c-1.596-2.115-2.956-3.509-4.081-4.182c-1.125-0.673-2.351-1.009-3.677-1.009
		c-1.711,0-3.11,0.519-4.196,1.557c-1.086,1.038-1.63,2.317-1.63,3.836c0,0.923,0.192,1.817,0.577,2.682
		c0.385,0.865,1.086,1.807,2.105,2.826c0.558,0.538,2.384,1.952,5.48,4.24c3.672,2.711,6.191,5.124,7.556,7.239
		c1.365,2.115,2.048,4.24,2.048,6.374c0,3.076-1.168,5.749-3.504,8.018s-5.177,3.403-8.523,3.403c-2.577,0-4.913-0.687-7.008-2.062
		C379.036,277.686,377.104,275.384,375.335,272.154z"/>
	<path fill="#808080" d="M427.573,237.63h24.313v4.153h-20.074v13.296h19.901v4.153h-19.901v16.67h19.901v4.153h-24.14V237.63z"/>
	<path fill="#808080" d="M480.682,237.63h8.451c4.711,0,7.903,0.193,9.575,0.578c2.519,0.578,4.567,1.814,6.143,3.711
		c1.577,1.896,2.365,4.23,2.365,7.003c0,2.31-0.543,4.342-1.63,6.093c-1.086,1.752-2.639,3.075-4.658,3.971
		c-2.019,0.896-4.807,1.353-8.364,1.372l15.257,19.699h-5.245l-15.258-19.699h-2.397v19.699h-4.24V237.63z M484.922,241.784v14.421
		l7.308,0.058c2.831,0,4.925-0.268,6.284-0.808c1.357-0.537,2.417-1.399,3.177-2.581c0.76-1.183,1.141-2.503,1.141-3.966
		c0-1.423-0.385-2.716-1.156-3.879c-0.77-1.163-1.781-1.995-3.033-2.495c-1.252-0.5-3.332-0.75-6.239-0.75H484.922z"/>
	<path fill="#808080" d="M535.727,237.63h4.615l14.06,32.777l14.291-32.777h4.615l-18.459,42.426h-0.923L535.727,237.63z"/>
	<path fill="#808080" d="M601.064,237.63h4.24v42.426h-4.24V237.63z"/>
	<path fill="#808080" d="M675.776,245.504l-3.346,2.567c-1.846-2.403-4.062-4.225-6.648-5.465s-5.427-1.86-8.523-1.86
		c-3.384,0-6.518,0.812-9.402,2.437s-5.119,3.807-6.706,6.547c-1.586,2.74-2.379,5.821-2.379,9.244c0,5.172,1.774,9.489,5.321,12.95
		c3.548,3.461,8.023,5.191,13.426,5.191c5.941,0,10.912-2.327,14.911-6.98l3.346,2.538c-2.115,2.692-4.754,4.773-7.917,6.244
		c-3.163,1.471-6.696,2.206-10.599,2.206c-7.422,0-13.277-2.471-17.564-7.412c-3.596-4.172-5.393-9.21-5.393-15.113
		c0-6.211,2.178-11.436,6.533-15.675c4.355-4.24,9.811-6.36,16.368-6.36c3.961,0,7.537,0.784,10.729,2.351
		C671.123,240.481,673.738,242.678,675.776,245.504z"/>
	<path fill="#808080" d="M704.136,237.63h24.313v4.153h-20.074v13.296h19.901v4.153h-19.901v16.67h19.901v4.153h-24.14V237.63z"/>
</g>
</svg>
